<?xml version="1.0" standalone="no"?>
<!DOCTYPE svg PUBLIC "-//W3C//DTD SVG 20010904//EN"
 "http://www.w3.org/TR/2001/REC-SVG-20010904/DTD/svg10.dtd">
<svg version="1.0" xmlns="http://www.w3.org/2000/svg"
 width="2016.000000pt" height="2016.000000pt" viewBox="0 0 2016.000000 2016.000000"
 preserveAspectRatio="xMidYMid meet">

<g transform="translate(0.000000,2016.000000) scale(0.100000,-0.100000)"
fill="#000000" stroke="none">
<path d="M9860 15083 c-98 -6 -382 -43 -485 -64 -442 -90 -864 -263 -1235
-506 -77 -50 -211 -143 -220 -153 -3 -3 -50 -41 -105 -85 -127 -100 -396 -370
-500 -500 -403 -504 -648 -1044 -755 -1663 -43 -250 -43 -233 -47 -1689 -2
-766 -1 -1393 2 -1393 9 0 284 190 290 201 4 5 -44 9 -123 9 -71 0 -131 3
-135 6 -3 3 17 33 44 67 27 34 48 66 46 72 -2 5 -20 11 -41 13 -34 3 -37 1
-31 -17 7 -24 -7 -28 -25 -6 -25 31 -5 45 66 45 45 0 70 5 78 14 6 8 44 58 85
112 41 55 79 102 85 106 6 4 8 10 4 13 -9 10 -109 -12 -216 -47 -62 -21 -96
-28 -103 -21 -14 14 73 45 231 83 84 20 130 36 140 48 61 76 77 97 90 118 8
13 20 24 26 24 6 0 32 -31 58 -70 l46 -70 89 0 89 0 22 37 22 38 -63 57 c-35
32 -67 57 -72 58 -4 0 -47 36 -96 80 -49 44 -92 80 -95 80 -3 0 -6 -7 -6 -15
0 -7 -6 -18 -14 -22 -8 -4 -26 -31 -40 -59 -28 -57 -39 -64 -94 -64 -30 0 -40
5 -53 29 -10 17 -28 30 -47 34 -21 4 -34 15 -43 37 -16 34 -18 35 -80 16 -63
-19 -112 -23 -116 -10 -2 7 16 14 43 18 26 3 53 11 60 17 8 6 14 9 14 6 0 -6
79 27 159 66 28 14 63 21 100 22 48 0 64 -5 113 -37 55 -36 57 -36 48 -12 -23
60 -4 140 47 192 9 9 13 44 13 104 0 77 4 97 26 142 21 40 28 73 34 158 5 58
13 115 19 126 16 30 60 62 77 55 10 -4 14 2 14 21 0 14 14 41 31 61 36 41 64
47 56 13 -6 -28 -26 -84 -41 -117 -14 -32 -12 -214 3 -219 6 -2 11 -12 11 -22
0 -11 12 -50 26 -87 42 -113 54 -165 54 -243 0 -109 -9 -150 -31 -150 -23 0
-23 -5 -3 60 15 51 15 140 1 195 -13 48 -48 139 -58 151 -6 8 -8 14 -4 14 4 0
3 6 -2 13 -20 25 -34 114 -32 194 2 46 0 83 -4 83 -66 1 -70 -5 -80 -95 -13
-126 -22 -164 -48 -224 -29 -65 -39 -144 -19 -156 15 -9 4 -40 -36 -107 -50
-83 -52 -105 -14 -181 17 -35 49 -82 71 -103 l40 -39 40 42 c45 49 50 82 19
143 -28 54 -25 99 9 172 17 35 33 75 36 91 3 15 12 27 21 27 22 0 16 -223 -6
-228 -14 -2 -15 8 -13 65 l3 68 -26 -64 -27 -63 26 -53 c39 -77 34 -115 -22
-170 -17 -16 -31 -35 -31 -41 0 -6 27 -35 61 -64 l60 -53 27 25 c40 36 73 55
129 71 41 12 133 62 133 72 0 1 -26 -4 -57 -11 -69 -16 -83 -17 -83 -5 0 11
39 26 57 23 6 -2 14 2 18 8 3 5 14 10 23 10 9 0 34 5 55 11 37 10 37 11 31 50
-5 30 -2 44 11 59 10 11 23 20 30 20 21 0 52 44 59 83 8 45 53 99 110 132 38
22 195 83 274 107 58 17 125 48 179 84 84 56 130 43 156 -45 l12 -43 44 40 44
39 -5 114 c-3 75 -10 126 -20 149 -9 19 -22 53 -28 75 -11 36 -30 80 -90 210
-10 22 -39 87 -65 145 -67 153 -75 168 -128 225 -29 33 -53 72 -63 104 -19 56
-45 86 -69 78 -8 -4 -15 -17 -15 -29 0 -32 -59 -153 -104 -211 -20 -26 -36
-52 -36 -57 0 -6 -4 -10 -9 -10 -5 0 -14 -13 -21 -30 -7 -16 -16 -30 -21 -30
-20 0 -7 41 26 84 19 26 35 50 35 56 0 5 6 13 13 17 7 4 32 45 55 90 38 73 42
88 42 152 0 41 4 71 10 71 6 0 10 -10 10 -23 0 -12 10 -29 22 -37 60 -41 80
-67 89 -113 6 -35 18 -57 47 -85 57 -55 79 -92 132 -215 26 -62 68 -155 94
-208 91 -192 133 -344 125 -452 -2 -26 -3 -47 -2 -47 1 0 38 27 82 60 91 69
253 156 356 191 60 21 89 24 205 24 74 0 150 -3 168 -7 l34 -8 -30 38 c-24 31
-94 165 -123 237 -4 11 -27 65 -50 120 -79 189 -110 298 -90 318 11 11 31 -29
31 -62 0 -29 30 -123 61 -189 16 -34 29 -68 29 -75 0 -7 4 -17 10 -23 5 -5 23
-47 39 -92 40 -110 73 -170 133 -236 54 -61 84 -71 107 -33 8 12 38 52 68 88
29 36 53 72 53 79 0 6 -7 27 -16 46 -20 42 -15 106 20 239 33 124 31 177 -12
269 -46 97 -43 131 13 194 58 64 66 101 31 137 -34 34 -51 65 -47 91 1 13 -9
31 -26 46 -61 52 -142 197 -237 423 -26 61 -51 117 -56 125 -39 61 -63 123
-75 190 -13 72 -17 81 -64 130 -28 29 -51 57 -51 61 0 4 -20 22 -45 39 -60 41
-127 50 -175 22 -19 -11 -52 -23 -72 -26 -28 -5 -37 -12 -40 -29 -2 -12 -15
-28 -31 -35 -15 -7 -38 -30 -52 -50 -13 -20 -44 -49 -67 -63 -47 -28 -63 -59
-30 -59 25 0 40 -19 48 -58 5 -26 3 -32 -10 -32 -10 0 -19 11 -23 30 -8 44
-21 46 -53 9 l-29 -34 -22 22 c-21 21 -24 21 -53 6 -30 -14 -106 -90 -106
-105 0 -4 -25 -23 -56 -43 -39 -25 -60 -47 -71 -73 -23 -57 -70 -100 -127
-116 -57 -17 -97 -53 -145 -132 -33 -54 -36 -64 -22 -64 5 0 12 12 15 26 13
51 189 194 212 172 10 -11 -5 -26 -42 -44 -49 -24 -129 -97 -148 -138 -9 -19
-16 -48 -16 -64 0 -27 4 -31 32 -34 41 -4 81 -57 69 -91 -5 -12 -17 -49 -26
-82 -10 -33 -21 -62 -24 -65 -4 -3 -17 -36 -29 -75 -32 -101 -86 -203 -138
-263 -25 -29 -49 -65 -53 -80 -4 -15 -19 -34 -34 -42 -24 -13 -28 -13 -52 10
-18 17 -28 21 -33 13 -4 -7 -28 -21 -53 -32 -24 -11 -54 -30 -66 -43 -20 -21
-20 -25 -7 -57 13 -31 17 -33 51 -28 21 3 48 8 61 12 15 5 22 3 22 -6 0 -13
-92 -254 -109 -287 -5 -9 -18 -42 -29 -72 -11 -30 -23 -64 -28 -75 -4 -11 -8
-49 -10 -85 -1 -36 -4 -72 -7 -80 -9 -24 -27 -156 -27 -197 0 -21 7 -63 16
-93 8 -30 15 -64 15 -74 0 -11 4 -27 9 -37 7 -12 5 -29 -5 -53 -16 -37 -40
-56 -74 -56 -25 0 -28 20 -3 20 23 1 48 21 56 47 7 23 -20 160 -36 180 -11 14
-5 101 17 223 8 47 15 112 15 145 0 35 7 73 16 90 9 17 22 50 30 75 15 46 30
82 45 113 5 9 19 43 30 75 12 31 25 61 30 67 5 5 9 16 9 26 0 13 -8 15 -48 11
-44 -4 -51 -2 -70 23 -12 15 -22 38 -22 51 0 28 44 76 96 102 22 11 52 34 68
51 31 32 46 32 46 -1 0 -14 5 -18 16 -14 9 3 21 6 28 6 7 0 18 12 25 28 7 15
19 34 27 42 37 38 78 99 97 140 48 110 56 129 77 195 12 39 26 75 30 80 5 6
11 26 15 46 6 31 4 36 -20 47 -14 7 -32 12 -39 12 -17 0 -40 54 -33 79 2 10 1
25 -4 32 -6 10 -9 5 -9 -16 0 -16 -17 -59 -38 -95 -35 -60 -43 -67 -122 -107
-47 -24 -94 -54 -105 -67 -50 -59 -62 -75 -101 -131 -56 -81 -118 -200 -138
-266 -10 -30 -21 -63 -26 -74 -5 -11 -16 -51 -25 -90 -14 -61 -71 -178 -96
-195 -4 -3 -17 -26 -27 -50 -33 -75 -93 -124 -264 -213 -129 -68 -335 -191
-364 -218 -11 -10 -24 -19 -28 -19 -12 0 -96 -71 -96 -82 0 -16 -29 -40 -40
-33 -17 10 44 79 118 133 78 57 192 128 382 236 225 128 237 137 263 195 11
25 31 59 44 75 39 46 72 120 88 194 7 37 19 81 26 97 7 17 13 32 13 35 7 26
47 116 73 163 18 33 33 63 33 68 0 5 3 9 8 9 4 0 13 12 19 28 7 15 44 63 82
108 60 70 79 85 150 119 82 39 82 39 117 111 19 39 34 80 34 91 0 35 71 162
111 197 21 20 54 38 75 42 42 8 114 73 114 102 0 26 28 56 73 77 21 10 61 44
89 77 28 32 66 67 83 78 34 21 75 27 75 10 0 -22 17 -8 28 23 16 42 38 67 83
95 20 12 42 35 48 50 6 15 27 37 46 50 19 12 35 28 35 36 0 23 34 43 84 50 27
3 57 13 66 21 13 12 27 13 75 5 72 -12 125 -46 171 -110 19 -27 44 -52 54 -55
31 -10 40 -30 55 -120 7 -48 22 -103 33 -123 75 -148 96 -191 143 -297 90
-205 161 -310 240 -361 l39 -24 57 26 c32 15 75 35 96 45 53 26 64 24 82 -12
31 -59 174 -103 261 -80 45 12 100 56 105 85 8 40 35 43 96 10 32 -18 63 -30
69 -27 7 2 36 27 66 56 30 29 93 76 140 105 97 60 151 110 298 277 286 326
370 413 441 461 89 59 166 79 248 64 59 -11 138 -55 147 -83 3 -10 36 -48 72
-85 72 -72 140 -109 246 -133 52 -12 63 -19 90 -57 31 -43 38 -48 218 -136 40
-20 75 -48 115 -95 183 -210 244 -258 321 -247 70 10 113 -8 182 -74 35 -32
100 -84 146 -115 69 -48 148 -120 189 -176 48 -66 135 -209 135 -224 0 -20
-24 5 -60 63 -79 124 -95 145 -145 200 -27 31 -102 94 -165 140 -63 47 -121
93 -127 103 -29 40 -78 59 -152 59 -88 0 -126 15 -191 76 -39 37 -50 43 -50
28 -1 -18 -1 -18 -16 1 -16 20 -16 20 -31 -2 -17 -25 -55 -30 -70 -10 -6 6
-13 35 -16 64 -5 42 -3 51 8 47 18 -7 28 -38 20 -63 -11 -37 18 -40 53 -5 18
19 29 34 24 34 -4 0 -32 31 -61 70 -58 76 -82 93 -185 133 -54 21 -72 24 -78
14 -6 -9 -11 -8 -21 4 -6 9 -26 23 -43 32 -18 9 -48 39 -69 67 -22 30 -44 50
-56 50 -11 0 -36 7 -56 15 -30 13 -37 13 -47 1 -15 -18 -44 -27 -51 -16 -4 6
-15 10 -25 10 -19 0 -19 -1 0 -46 11 -25 20 -55 20 -65 0 -11 5 -17 10 -14 23
14 30 -8 10 -28 -12 -12 -32 -39 -46 -60 -23 -37 -24 -39 -7 -62 19 -26 52
-32 71 -13 19 19 26 1 16 -40 -8 -33 -13 -37 -44 -40 -35 -3 -37 -1 -59 53
-13 30 -27 57 -31 60 -17 10 -39 -7 -60 -48 l-23 -42 22 -48 c27 -59 22 -76
-37 -142 -58 -65 -64 -81 -72 -208 -8 -124 -31 -187 -67 -187 -36 0 -74 -22
-89 -52 -17 -32 -12 -60 17 -97 28 -35 23 -70 -16 -131 -40 -62 -46 -88 -49
-199 l-1 -81 67 67 c36 36 74 82 84 102 9 20 22 45 28 56 6 11 12 78 14 148 3
105 7 127 18 123 11 -4 14 11 14 79 l0 84 42 3 c47 3 48 4 66 108 11 62 51
155 92 215 15 22 30 49 34 60 11 32 53 78 65 71 6 -4 11 -17 11 -28 0 -29 47
-106 87 -144 18 -17 55 -40 81 -51 33 -14 46 -25 44 -37 -3 -19 42 -39 69 -31
27 9 23 16 -24 50 -28 20 -51 49 -69 87 -23 48 -35 61 -78 83 -38 19 -50 31
-50 48 0 29 -18 47 -47 47 -32 0 -29 28 4 36 40 11 58 -5 83 -72 7 -20 22 -34
43 -42 26 -9 39 -25 62 -73 33 -71 55 -94 108 -117 23 -10 37 -24 37 -35 0
-18 -41 -40 -72 -39 -10 0 -20 -3 -23 -9 -10 -16 -51 -10 -70 11 -11 13 -15
27 -11 43 5 21 2 25 -24 31 -43 8 -128 92 -154 151 l-22 50 -44 -75 c-24 -41
-55 -102 -67 -135 -13 -33 -28 -68 -33 -77 -16 -28 -12 -31 18 -11 31 22 40
22 100 5 61 -18 52 -30 -20 -27 -35 1 -51 1 -35 -2 32 -5 35 -18 8 -33 -27
-14 -37 -13 -55 6 -22 21 -32 11 -39 -37 -6 -45 -40 -89 -69 -89 -16 0 -18 -9
-18 -76 0 -68 -2 -76 -18 -72 -15 4 -17 0 -14 -27 2 -18 -1 -72 -7 -120 -14
-115 -41 -166 -144 -271 -44 -46 -94 -107 -110 -136 -46 -85 -54 -94 -91 -112
-42 -20 -42 -20 -18 -83 9 -27 16 -59 14 -73 -1 -14 -5 -53 -8 -87 l-6 -63 59
6 c62 6 199 21 272 31 24 3 60 0 80 -6 20 -6 66 -18 102 -26 l66 -16 111 36
c96 31 119 42 166 86 30 28 61 66 68 85 6 19 16 34 20 34 4 0 8 6 8 13 0 7 23
34 50 60 28 26 50 56 50 67 0 11 7 20 15 20 30 0 15 -46 -30 -90 l-45 -44 3
-92 2 -92 27 -4 c26 -4 28 -2 28 29 0 23 5 33 15 33 8 0 15 -6 15 -13 0 -7 6
-21 13 -30 10 -15 16 -16 45 -5 18 7 32 19 32 29 0 9 18 34 40 57 45 46 48 62
20 117 -21 41 -25 65 -12 65 12 0 62 -96 62 -119 0 -29 -22 -71 -54 -100 -16
-15 -26 -35 -26 -52 0 -21 -7 -32 -28 -43 -26 -13 -32 -13 -60 4 -18 11 -32
16 -33 12 0 -4 -1 -27 -2 -52 -3 -59 -19 -66 -30 -13 -10 50 -30 71 -52 53 -8
-7 -15 -20 -15 -30 0 -27 -68 -110 -90 -110 -17 0 -13 7 19 40 47 49 63 102
59 200 l-3 75 -27 -46 c-53 -89 -114 -131 -258 -174 -70 -21 -73 -23 -50 -33
196 -85 351 -145 374 -146 26 -1 31 4 38 34 12 44 29 63 51 54 14 -5 17 -20
17 -78 0 -45 5 -79 14 -92 8 -11 64 -56 125 -99 72 -51 111 -86 111 -98 0 -14
-27 3 -109 65 -60 46 -119 89 -130 97 -27 20 -43 62 -40 103 4 44 -13 52 -23
10 -11 -41 -54 -66 -70 -39 -18 33 -65 43 -152 34 -45 -4 -88 -11 -96 -14 -8
-3 -23 -5 -34 -4 -10 2 -38 -3 -62 -10 -36 -11 -44 -18 -44 -37 0 -45 -66 -88
-166 -107 -43 -8 -81 -18 -86 -23 -4 -4 20 -42 54 -83 35 -41 108 -129 163
-195 55 -65 102 -121 105 -124 3 -3 53 -61 110 -130 124 -148 93 -111 331
-393 l191 -228 52 48 c28 26 64 63 80 81 l29 33 -29 30 c-40 42 -77 58 -159
70 -80 11 -101 25 -91 63 6 23 12 26 46 26 38 0 40 2 40 30 0 28 -6 33 -92 74
-117 55 -143 81 -135 135 4 36 2 40 -23 51 -27 11 -70 60 -70 80 0 5 -4 10 -8
10 -5 0 -14 17 -20 39 -14 47 -15 51 -2 51 5 0 18 -21 30 -47 12 -27 37 -65
58 -85 33 -35 41 -38 90 -38 33 0 78 9 115 24 34 13 74 27 90 30 15 4 27 10
27 14 0 9 -193 101 -235 113 -16 5 -59 10 -94 13 -61 4 -66 6 -99 45 -36 43
-52 51 -52 25 0 -8 -4 -12 -10 -9 -15 10 -12 45 5 51 10 4 34 -11 65 -40 39
-37 57 -46 87 -47 95 -3 108 -7 306 -103 142 -69 191 -86 250 -86 57 0 61 -5
-120 140 -34 28 -66 50 -71 50 -5 0 -19 11 -32 25 -13 14 -28 25 -33 25 -5 0
-21 9 -37 20 -37 26 -264 140 -279 140 -7 0 -11 6 -8 13 2 6 12 11 21 9 30 -5
248 -114 294 -146 24 -17 51 -35 61 -41 9 -5 34 -24 56 -40 22 -17 51 -38 65
-47 14 -8 55 -44 93 -78 67 -62 68 -62 113 -55 36 5 44 10 40 23 -3 9 -8 44
-11 77 -3 33 -12 103 -20 155 -8 52 -16 113 -17 135 l-3 40 -45 -3 c-25 -2
-59 -13 -77 -23 -37 -23 -66 -19 -106 17 -24 20 -27 29 -22 55 5 20 1 38 -10
55 -12 19 -15 36 -10 65 6 32 4 40 -12 45 -87 31 -147 74 -123 89 7 4 15 3 19
-2 12 -17 96 -56 186 -85 50 -16 105 -35 122 -44 46 -21 79 -69 94 -137 l12
-58 22 43 c26 52 72 85 131 94 39 5 52 15 100 70 43 48 73 71 127 98 51 24 83
48 110 80 l39 47 -4 582 c-5 622 -12 718 -69 1002 -140 690 -473 1310 -979
1816 -729 730 -1712 1103 -2750 1042z m-648 -2250 c20 -21 41 -48 47 -60 14
-28 4 -71 -18 -78 -10 -3 -23 -15 -28 -28 -12 -25 -33 -206 -33 -284 0 -47
-12 -75 -23 -56 -4 7 1 85 19 277 l7 79 -33 -7 c-56 -11 -83 -33 -75 -63 4
-18 2 -24 -7 -21 -7 3 -13 20 -13 39 0 29 5 36 35 51 19 9 58 23 85 29 62 16
69 21 60 48 -7 24 -70 91 -85 91 -6 0 -10 5 -10 10 0 22 38 8 72 -27z m-353
-57 c16 -49 17 -109 3 -114 -8 -2 -12 8 -12 31 0 40 -27 100 -43 94 -8 -2 -12
-29 -12 -70 0 -57 -3 -67 -17 -67 -15 0 -18 10 -18 64 0 52 4 69 22 89 18 21
26 23 45 14 12 -5 27 -24 32 -41z m3348 -176 c-3 -12 1 -25 12 -33 19 -14 51
-62 51 -77 0 -23 -27 -8 -41 22 -8 18 -23 35 -34 36 -33 6 -38 18 -20 46 20
31 40 34 32 6z m-3327 -32 c0 -7 7 -26 15 -42 33 -63 70 -286 48 -286 -6 0
-15 33 -22 73 -13 86 -15 97 -24 117 -3 8 -12 38 -20 65 l-14 50 -21 -46 c-42
-91 -61 -149 -56 -164 3 -8 21 -17 40 -21 32 -6 34 -8 34 -48 0 -22 7 -86 15
-140 23 -149 20 -281 -10 -448 -3 -22 -1 -28 13 -28 22 0 114 35 176 66 48 25
65 26 51 4 -12 -20 -145 -79 -204 -90 -31 -6 -73 -16 -93 -21 -37 -9 -78 -49
-78 -75 0 -8 -4 -14 -9 -14 -5 0 -12 -11 -15 -25 -7 -27 -26 -35 -26 -10 0 54
72 139 126 150 22 4 33 11 33 23 0 9 7 58 15 107 19 118 19 230 0 335 -9 47
-18 102 -21 123 -4 27 -10 37 -23 37 -30 0 -63 50 -57 85 8 48 98 235 113 235
8 0 14 -6 14 -12z m3445 -63 c26 -25 32 -45 15 -45 -12 0 -59 50 -60 63 0 15
22 6 45 -18z m-197 -47 c-5 -9 34 -48 49 -48 7 0 13 -7 13 -15 0 -21 -17 -19
-51 6 -28 20 -43 75 -18 67 6 -2 9 -6 7 -10z m217 -28 c10 -16 -23 -60 -43
-60 -19 0 -42 18 -42 33 0 5 11 6 25 3 20 -5 25 -3 25 14 0 21 24 28 35 10z
m173 -15 c12 -14 22 -30 22 -35 0 -18 -18 -10 -41 18 l-22 27 6 -30 c4 -16 10
-41 13 -54 5 -17 3 -22 -6 -19 -15 5 -42 87 -35 106 7 20 40 14 63 -13z
m-3872 -12 c7 -29 7 -45 -1 -99 -4 -25 -14 -35 -46 -50 -23 -10 -55 -35 -72
-56 -16 -21 -51 -48 -76 -60 -81 -38 -87 -61 -41 -153 30 -61 38 -95 20 -95
-9 0 -28 28 -28 43 -1 4 -10 32 -21 63 -38 99 -25 130 71 172 34 15 49 28 54
46 7 28 52 66 78 66 30 0 49 45 41 100 -7 54 7 70 21 23z m-27 -209 c-23 -69
-31 -80 -82 -105 -30 -16 -36 -23 -28 -33 8 -10 8 -22 1 -40 -8 -21 -6 -35 6
-59 9 -18 21 -35 26 -38 6 -4 10 -23 11 -43 1 -27 -6 -43 -28 -66 -16 -16 -34
-30 -39 -30 -6 0 -22 -9 -36 -20 -28 -22 -60 -26 -60 -9 0 6 9 28 19 48 11 20
22 44 25 54 3 9 11 17 17 17 11 0 8 -25 -7 -64 -8 -22 8 -20 39 4 37 30 41 53
16 110 -15 36 -20 62 -16 91 l5 41 -22 -21 c-23 -22 -66 -29 -66 -11 0 6 11
15 24 20 14 5 32 21 42 34 9 15 34 31 56 38 28 8 43 19 49 37 5 14 12 33 16
41 3 8 7 17 8 20 9 26 19 40 30 40 9 0 8 -14 -6 -56z m676 24 c4 -11 49 -62
100 -113 103 -102 115 -129 89 -195 -12 -29 -25 -42 -55 -54 -53 -21 -75 -20
-100 5 -19 19 -21 29 -15 75 14 124 45 140 43 22 l-2 -83 28 -3 c40 -5 75 21
82 62 9 46 -21 102 -80 150 -42 35 -125 134 -125 149 0 17 29 5 35 -15z m-268
-103 c25 -49 44 -75 55 -75 27 0 89 -70 118 -135 15 -33 33 -94 40 -136 21
-132 -1 -163 -145 -203 -33 -9 -77 -24 -99 -32 -21 -8 -41 -12 -44 -9 -13 12
28 34 125 65 56 18 110 38 119 44 60 45 -23 352 -101 372 -33 8 -98 -65 -132
-148 -16 -37 -31 -68 -35 -68 -23 0 9 91 56 163 55 84 56 73 -22 230 -2 4 3 7
11 7 9 0 32 -33 54 -75z m3724 25 c4 -19 5 -38 3 -42 -10 -16 -24 3 -24 32 0
24 -3 27 -22 22 -21 -5 -22 -4 -9 12 21 26 44 15 52 -24z m292 -110 c6 -16 17
-30 24 -30 6 0 14 -9 18 -20 4 -12 22 -24 46 -32 22 -6 47 -21 54 -32 13 -17
13 -22 -2 -38 -22 -24 -27 -23 -40 12 -9 24 -17 30 -42 30 -24 0 -32 5 -37 25
-6 24 -38 55 -56 55 -15 0 -8 -48 7 -54 30 -11 14 -26 -29 -26 -54 0 -67 22
-35 56 11 12 18 27 14 33 -14 24 6 51 37 51 24 0 32 -6 41 -30z m-502 -70 c7
-49 6 -55 -10 -45 -6 3 -11 19 -11 36 0 16 -4 29 -10 29 -5 0 -10 -20 -10 -45
0 -58 -16 -58 -25 1 -7 52 6 77 39 72 17 -2 22 -12 27 -48z m179 -21 c0 -5
-13 -9 -30 -9 -33 0 -39 14 -13 29 18 10 43 -2 43 -20z m-324 -4 c8 -19 -11
-43 -39 -48 -12 -2 -5 -5 16 -6 31 -1 40 3 44 19 6 23 26 26 40 8 13 -17 24
-74 16 -82 -10 -10 -33 15 -33 36 0 34 -25 -3 -27 -41 l-2 -34 57 7 c69 7 93
-4 75 -34 -24 -38 -10 -80 27 -80 9 0 22 -11 28 -24 7 -15 33 -35 66 -51 60
-28 99 -72 118 -134 10 -30 17 -40 28 -35 8 3 23 9 33 11 13 4 16 11 11 22 -4
9 -7 31 -7 49 1 28 -2 32 -23 32 -38 0 -78 45 -71 79 4 21 -1 38 -19 62 -27
37 -31 69 -9 69 8 0 15 -7 15 -16 0 -9 9 -27 20 -41 11 -14 22 -47 26 -73 7
-51 17 -60 75 -60 15 0 30 -7 33 -16 3 -8 10 -12 16 -9 23 14 7 34 -42 51 -28
11 -54 26 -58 34 -5 8 -14 29 -21 45 -7 17 -15 33 -17 38 -2 4 3 7 12 7 9 0
16 -4 16 -10 0 -5 11 -10 25 -10 26 0 45 -25 45 -59 0 -14 6 -21 18 -21 29 0
65 -44 57 -69 -3 -12 -13 -21 -21 -21 -18 0 -18 -4 2 -42 24 -47 27 -83 9 -98
-14 -12 -20 -10 -39 14 -24 31 -28 30 -75 -30 -25 -32 -37 -26 -45 27 -4 22
-19 64 -34 93 -23 45 -36 58 -89 86 -35 18 -63 36 -63 41 0 5 -17 16 -37 24
-74 31 -95 78 -50 110 20 15 20 16 2 12 -69 -18 -92 -17 -118 4 -15 11 -27 28
-27 37 0 14 -8 16 -47 14 -74 -5 -115 44 -80 93 17 22 37 12 37 -19 0 -24 26
-54 37 -43 3 4 0 13 -7 22 -18 21 4 45 41 45 19 0 29 5 29 15 0 20 19 19 26 0z
m701 -265 c67 -14 109 -51 92 -81 -12 -23 -29 -16 -29 11 0 23 -5 26 -50 34
l-35 7 23 -20 c12 -10 22 -26 22 -35 0 -22 -3 -21 -41 15 -19 18 -58 49 -87
71 -63 46 -61 65 3 32 25 -12 71 -28 102 -34z m-927 -9 c14 -28 13 -77 -6
-160 -21 -91 -14 -127 36 -179 48 -49 52 -85 15 -140 -38 -58 -40 -89 -10
-147 45 -85 65 -154 53 -181 -16 -34 -28 -20 -28 32 0 32 -10 64 -36 114 -32
60 -36 76 -32 119 3 34 13 59 31 81 15 17 27 38 27 46 0 7 -23 39 -51 70 l-52
57 6 70 c3 39 12 74 18 78 14 8 17 102 5 137 -10 28 9 30 24 3z m190 -115 c0
-55 5 -89 14 -102 21 -28 30 -10 12 25 -19 35 -20 51 -5 51 17 0 40 -69 37
-111 l-3 -39 -43 37 -44 38 0 87 c0 48 3 92 7 97 15 26 25 -6 25 -83z m909
-81 c28 -26 58 -67 70 -94 11 -27 34 -60 50 -73 27 -23 29 -31 32 -106 2 -45
1 -82 -3 -82 -15 0 -26 37 -25 86 1 43 -4 55 -27 79 -15 15 -41 56 -58 90 -36
76 -84 127 -98 105 -5 -8 -10 -44 -11 -80 -2 -78 -2 -69 7 -104 7 -28 6 -29
-26 -23 -46 10 -127 65 -152 104 -29 47 -14 54 22 11 31 -37 88 -78 109 -78 7
0 11 25 11 74 0 81 15 136 36 136 8 0 37 -20 63 -45z m-411 -152 c3 -10 -15
-13 -67 -13 -39 0 -71 -4 -71 -9 0 -5 -10 -11 -22 -13 -29 -4 -21 -23 10 -23
26 1 30 -20 5 -29 -10 -3 -22 -8 -28 -11 -14 -6 -41 16 -49 41 -5 16 0 26 19
38 50 33 194 46 203 19z m-118 -124 c0 -5 -13 -9 -28 -9 -37 0 -71 -37 -75
-80 -3 -36 -23 -52 -29 -23 -6 25 8 72 28 95 28 31 104 43 104 17z m-5175
-155 c23 9 45 -4 45 -26 0 -11 -16 -38 -36 -60 -25 -28 -34 -46 -30 -61 7 -27
-18 -83 -43 -96 -35 -19 -64 6 -57 48 3 19 11 38 18 42 6 4 12 24 11 44 -1 41
15 43 34 4 12 -23 13 -23 13 -3 0 12 11 30 25 40 31 23 32 44 3 44 -25 0 -58
27 -58 47 0 8 5 24 12 36 11 21 12 20 30 -22 13 -30 22 -41 33 -37z m4013 -56
c22 -49 37 -158 23 -158 -14 0 -22 26 -56 178 -9 38 13 24 33 -20z m1749 -113
c126 -22 173 -36 173 -50 0 -9 -30 -6 -112 11 -62 13 -138 26 -168 29 -30 2
-79 7 -108 11 -28 3 -58 2 -65 -3 -16 -12 -41 -11 -45 2 -9 28 166 28 325 0z
m-196 -61 c13 -12 22 -13 38 -5 34 18 51 13 51 -15 0 -29 -16 -64 -30 -64 -6
0 -10 7 -10 15 0 8 5 15 10 15 6 0 10 7 10 15 0 17 -16 20 -25 5 -9 -14 -53
-12 -58 3 -6 19 -35 -9 -42 -44 -4 -16 -13 -29 -21 -29 -8 0 -14 -5 -14 -11 0
-18 -53 -1 -77 26 l-21 24 -15 -22 c-14 -20 -16 -20 -22 -4 -13 32 3 67 31 67
13 0 27 -7 30 -15 13 -32 83 -15 106 26 19 33 34 36 59 13z m183 -24 c18 -6
34 -6 51 2 32 14 46 1 20 -19 -14 -10 -34 -13 -68 -9 -43 5 -49 3 -56 -17 -9
-21 -9 -21 -17 -3 -5 14 -1 24 15 38 27 21 23 21 55 8z m-44 -93 c0 -24 -64
-74 -103 -81 -32 -6 -44 -15 -69 -56 -32 -52 -55 -59 -37 -12 19 51 83 102
127 102 10 0 28 14 40 30 24 32 42 39 42 17z m-6370 -16 c0 -24 -35 -68 -61
-76 -16 -5 -19 -12 -15 -31 5 -17 2 -24 -9 -24 -10 0 -15 10 -15 34 0 29 5 36
35 50 21 10 37 26 41 41 7 29 24 33 24 6z m-138 -108 c19 -17 25 -73 8 -73 -5
0 -10 11 -10 25 0 14 -4 25 -10 25 -5 0 -10 -6 -10 -13 0 -20 -37 -51 -45 -37
-15 25 -23 -4 -11 -43 21 -71 -8 -114 -70 -104 -34 6 -36 5 -30 -18 9 -35 -15
-32 -37 4 -16 27 -16 29 1 44 11 10 27 14 40 10 35 -9 63 32 56 81 -7 41 4 56
41 56 14 0 25 10 32 30 13 34 19 36 45 13z m108 -79 c0 -34 -7 -54 -26 -80
-24 -31 -26 -39 -20 -94 4 -35 3 -60 -2 -60 -28 0 -29 124 -2 165 12 18 20 47
20 73 0 31 4 42 15 42 11 0 15 -12 15 -46z"/>
<path d="M12830 11656 c0 -8 5 -18 10 -21 6 -3 10 1 10 9 0 8 -4 18 -10 21 -5
3 -10 -1 -10 -9z"/>
<path d="M7492 10880 c-16 -26 -15 -30 3 -30 9 0 15 9 15 25 0 30 -2 31 -18 5z"/>
<path d="M11659 12942 c-20 -4 -49 -70 -49 -110 0 -18 3 -32 6 -32 17 0 43 23
53 47 14 33 68 73 100 73 14 0 21 5 18 13 -3 11 -87 17 -128 9z"/>
<path d="M11539 12891 c-81 -53 -176 -153 -450 -476 -24 -27 -72 -81 -108
-118 -61 -63 -64 -68 -36 -61 42 9 63 21 112 60 55 45 67 44 60 -3 -4 -27 -17
-48 -43 -70 -21 -18 -43 -33 -49 -33 -7 0 -28 -16 -48 -35 -29 -28 -38 -48
-48 -97 -15 -73 -37 -98 -104 -116 -40 -11 -46 -16 -42 -33 9 -32 -30 -51 -78
-38 -52 15 -115 47 -115 59 0 14 2 13 73 -15 l62 -26 15 22 c31 43 64 69 90
69 34 0 66 34 75 80 13 72 40 118 76 132 8 3 34 20 57 38 47 34 51 55 5 23
-35 -25 -107 -53 -134 -53 -32 0 -188 -99 -256 -162 -67 -62 -108 -74 -149
-43 -34 25 -64 18 -103 -26 -29 -33 -47 -43 -95 -54 -51 -12 -68 -12 -125 1
-77 18 -151 52 -151 70 0 7 -4 15 -10 19 -11 7 -111 -25 -168 -54 -39 -20 -44
-20 -65 -6 -49 34 -50 7 -2 -46 52 -58 48 -80 -28 -162 -50 -55 -51 -88 -4
-188 34 -72 38 -90 34 -138 -2 -31 -7 -65 -10 -76 -29 -94 -37 -141 -37 -210
0 -104 9 -117 45 -68 33 44 98 127 212 270 45 56 88 111 95 122 19 30 32 26
61 -18 74 -112 360 -481 372 -481 20 0 19 14 -7 63 -35 67 -39 306 -5 294 7
-2 10 -15 8 -28 -15 -105 -12 -148 14 -220 38 -105 40 -119 21 -119 -22 0 -20
-11 9 -54 14 -20 35 -51 48 -69 46 -67 83 -104 109 -111 31 -7 107 8 156 31
32 15 36 15 65 -2 23 -14 52 -19 101 -20 77 0 94 -12 82 -59 -6 -23 -11 -27
-31 -22 -21 5 -24 2 -30 -34 -10 -56 7 -74 59 -65 22 3 43 10 46 14 8 12 100
41 129 41 14 0 33 4 41 10 11 7 9 11 -13 19 -27 10 -31 18 -28 56 1 13 -8 24
-28 33 -36 16 -56 74 -47 135 4 22 2 44 -3 51 -12 15 -14 32 -12 154 1 83 4
102 16 102 12 0 15 -18 15 -104 0 -81 3 -105 14 -109 14 -6 16 -30 3 -43 -13
-13 -7 -104 8 -133 8 -16 23 -31 35 -34 13 -3 20 -13 20 -31 0 -34 63 -84 85
-66 9 7 12 22 9 40 -3 15 -1 53 6 84 9 44 9 63 -1 91 -7 19 -16 35 -20 35 -10
0 -20 46 -13 64 3 9 11 16 18 16 31 0 85 52 114 112 29 58 31 72 34 184 3 115
4 122 33 164 48 69 63 103 54 120 -19 33 -39 94 -39 115 0 43 69 105 118 105
16 0 23 13 36 71 18 80 21 179 6 179 -5 0 -10 -7 -10 -15 0 -8 -7 -15 -15 -15
-18 0 -20 31 -3 48 9 9 5 14 -19 22 -17 6 -35 22 -41 35 -14 31 -24 32 -37 3
-6 -15 -21 -24 -38 -26 -15 -2 -33 -12 -40 -23 -15 -25 -37 -25 -37 1 0 24 37
60 62 60 10 0 18 4 18 9 0 5 3 17 6 25 5 14 2 15 -21 6 -39 -15 -81 -12 -99 6
-18 17 -22 79 -6 89 6 3 10 -5 10 -19 0 -64 91 -72 141 -12 23 26 29 29 43 17
9 -7 16 -20 16 -27 0 -8 5 -14 11 -14 6 0 10 10 9 23 -5 53 0 81 11 70 18 -18
16 -110 -2 -128 -15 -15 -17 -15 -33 0 -9 9 -16 23 -16 31 0 8 -4 14 -10 14
-5 0 -10 -7 -10 -15 0 -8 -5 -15 -11 -15 -8 0 -8 -5 1 -15 7 -8 18 -15 25 -15
7 0 20 -11 29 -25 11 -17 26 -25 46 -25 16 0 32 -5 35 -11 5 -6 13 -2 23 13 9
13 22 27 29 31 7 4 24 27 38 51 24 41 25 44 10 92 -26 88 -22 107 39 159 30
26 62 63 71 84 10 20 21 43 25 51 4 8 -3 34 -17 59 -12 24 -23 59 -23 78 l0
34 -25 -18 c-13 -10 -25 -25 -25 -34 0 -22 -35 -51 -57 -47 -14 2 -19 14 -21
56 l-3 52 -50 0 c-62 0 -70 15 -41 76 22 44 21 74 -2 74 -16 0 -50 -38 -67
-75 -8 -17 -23 -31 -35 -33 -33 -5 -73 16 -86 44 -11 24 -10 29 13 48 30 26
44 56 26 56 -7 0 -33 -13 -58 -29z m24 -186 c-14 -42 -35 -68 -129 -160 -86
-84 -119 -123 -137 -165 -14 -31 -38 -65 -56 -78 -18 -13 -37 -34 -43 -48 -16
-35 -32 -30 -24 8 4 19 21 44 47 66 23 20 50 55 60 79 11 26 43 66 81 101 116
106 165 158 172 185 13 53 27 80 36 71 5 -5 2 -29 -7 -59z m144 17 c11 -7 11
-58 1 -101 -6 -30 27 -22 39 9 6 16 16 30 22 30 16 0 23 -63 10 -95 -6 -17
-12 -43 -13 -60 -1 -40 31 -45 71 -11 27 22 32 24 49 11 21 -15 44 -4 44 22 0
26 25 8 28 -20 4 -33 -29 -50 -67 -35 -19 7 -29 4 -46 -12 -44 -42 -105 -13
-105 49 0 35 -3 39 -30 44 -46 10 -108 -23 -172 -91 -32 -33 -58 -65 -58 -70
0 -12 87 -56 110 -57 19 0 24 -42 11 -78 -8 -19 -18 -27 -35 -27 -28 0 -49 29
-40 54 10 26 -22 63 -60 70 -20 4 -36 11 -36 15 0 14 160 180 180 186 24 8 25
22 4 64 -18 35 -12 96 9 104 19 8 71 7 84 -1z m58 -404 c6 -15 21 -24 40 -26
39 -5 54 -28 55 -83 0 -39 -4 -49 -26 -64 -18 -11 -29 -14 -36 -7 -14 14 -1
32 23 32 15 0 19 7 19 35 0 41 -21 55 -53 35 -17 -10 -23 -10 -34 6 -14 19
-18 94 -5 94 4 0 12 -10 17 -22z m-293 -60 c-8 -34 -54 -97 -111 -153 -33 -32
-53 -61 -57 -82 -7 -36 -21 -51 -34 -37 -15 15 29 87 90 149 33 33 60 63 60
67 0 3 7 22 15 42 17 40 47 51 37 14z m-402 -140 c0 -25 -28 -105 -54 -156
-19 -37 -26 -67 -26 -107 0 -61 -9 -69 -28 -26 -11 25 -9 38 17 111 17 45 35
87 40 94 5 6 12 27 16 46 4 19 9 38 12 43 7 12 23 8 23 -5z m383 -14 c4 -4 -5
-20 -18 -36 -31 -36 -51 -106 -36 -121 8 -8 11 -3 11 16 0 31 12 33 54 12 38
-20 44 -12 13 18 -22 19 -25 29 -19 52 12 44 31 42 38 -4 4 -23 18 -52 33 -68
15 -15 33 -48 41 -73 20 -67 47 -95 46 -48 -1 14 6 24 17 26 13 3 17 -3 17
-28 0 -34 22 -49 45 -30 19 16 19 51 0 75 -8 11 -25 36 -38 55 -12 19 -33 36
-45 38 -35 5 -26 24 10 20 24 -2 38 -12 55 -38 12 -19 27 -40 31 -46 35 -41
42 -94 16 -115 -9 -7 -32 -19 -51 -25 -32 -11 -36 -10 -78 25 -24 20 -47 47
-51 60 -6 20 -9 22 -18 9 -19 -25 -64 -50 -77 -42 -9 5 -4 14 16 29 24 20 26
26 18 51 -6 19 -18 30 -32 32 -15 3 -21 0 -16 -8 4 -6 1 -66 -5 -133 -13 -135
-6 -203 31 -274 l20 -38 -7 158 c-4 97 -2 157 3 157 19 0 30 -289 13 -334 -13
-36 -22 -33 -43 15 -43 99 -54 190 -41 354 5 65 4 69 -11 50 -34 -43 -84 -155
-91 -203 -4 -29 -1 -79 6 -116 14 -74 7 -136 -15 -136 -8 0 -15 6 -15 13 0 7
-7 22 -16 33 -16 20 -16 29 -2 -225 5 -72 -19 -62 -26 11 -11 116 -10 272 1
275 6 2 22 -10 37 -28 l27 -31 -8 43 c-4 24 -8 83 -8 131 0 82 2 90 43 168 33
64 42 92 42 131 0 76 55 171 83 143z m-949 -193 c-21 -41 -93 -121 -110 -121
-20 0 -7 22 46 83 33 37 40 51 31 60 -19 19 -43 -4 -78 -74 -37 -73 -73 -109
-109 -109 -36 0 -29 16 14 33 29 12 43 25 57 59 27 62 53 97 89 119 30 18 31
18 52 -2 20 -19 21 -23 8 -48z m56 -76 c0 -8 -7 -15 -15 -15 -18 0 -35 -31
-35 -64 0 -16 -10 -32 -29 -45 -16 -12 -32 -32 -35 -46 -4 -16 -19 -30 -41
-39 -42 -18 -44 -28 -10 -50 56 -37 53 -113 -6 -133 -47 -15 -55 -2 -25 42 14
21 26 42 26 47 0 5 -17 25 -37 45 l-38 35 24 19 c13 10 32 19 42 19 12 0 28
14 40 34 11 19 31 42 45 50 17 12 24 26 24 48 0 17 7 40 17 50 20 22 53 24 53
3z m80 -54 c-86 -86 -97 -119 -80 -234 15 -101 7 -149 -32 -188 -25 -24 -38
-29 -67 -27 -24 2 -36 8 -36 18 0 10 8 14 24 12 78 -11 96 26 86 176 -9 142 2
179 75 255 34 35 64 57 78 57 17 0 9 -13 -48 -69z m-482 23 c33 -9 29 -36 -5
-33 -36 4 -62 -11 -67 -38 -10 -51 -26 -65 -63 -58 -32 6 -34 4 -31 -17 2 -18
12 -24 46 -31 64 -13 160 -117 107 -117 -8 0 -15 6 -15 14 0 25 -66 73 -118
85 -36 9 -52 19 -61 37 -14 31 -14 30 5 48 11 12 26 14 55 10 34 -6 39 -4 39
12 1 28 24 65 51 80 28 16 27 15 57 8z m982 -42 c0 -14 -33 -40 -70 -56 -54
-22 -76 -47 -84 -94 -3 -24 -18 -60 -32 -82 -14 -21 -28 -57 -31 -79 -6 -45
-17 -53 -26 -20 -6 23 0 41 35 117 12 26 23 49 23 52 1 3 5 22 9 42 10 44 19
53 100 94 69 35 76 37 76 26z m-80 -147 c-10 -12 -7 -19 15 -39 30 -28 28 -38
-13 -55 -33 -14 -62 -58 -62 -95 0 -14 -4 -26 -10 -26 -5 0 -10 16 -10 35 0
35 18 85 30 85 4 0 17 8 29 19 18 16 19 20 6 31 -26 22 -18 60 13 60 12 0 12
-3 2 -15z m368 -143 c7 -99 -26 -272 -51 -272 -11 0 -1 95 13 120 15 28 22
134 11 179 -10 47 -6 70 11 53 6 -6 13 -42 16 -80z m2 -332 c0 -20 -27 -75
-43 -88 -27 -23 -29 5 -2 44 14 20 25 41 25 45 0 5 5 9 10 9 6 0 10 -5 10 -10z"/>
<path d="M11652 12694 c-25 -17 -28 -44 -9 -76 31 -56 37 -52 37 21 0 39 -1
71 -3 71 -1 0 -13 -7 -25 -16z"/>
<path d="M11570 12310 c0 -5 5 -10 11 -10 5 0 7 5 4 10 -3 6 -8 10 -11 10 -2
0 -4 -4 -4 -10z"/>
<path d="M11794 12904 c-7 -3 -9 -23 -6 -53 2 -30 0 -51 -7 -55 -21 -14 -11
-26 22 -26 41 0 57 -15 57 -56 0 -23 5 -33 20 -37 16 -4 20 0 20 17 0 30 30
56 63 56 15 0 27 2 27 5 0 3 -27 39 -61 80 -53 66 -64 75 -92 74 -18 0 -37 -3
-43 -5z"/>
<path d="M12002 12728 c-20 -20 -14 -48 11 -48 12 0 32 -3 45 -6 33 -9 28 18
-8 44 -34 26 -33 25 -48 10z"/>
<path d="M12282 12611 c17 -32 48 -68 48 -55 0 5 -14 25 -30 44 -22 25 -27 28
-18 11z"/>
<path d="M7324 10915 c-4 -14 -4 -29 0 -32 3 -4 6 3 6 15 0 12 5 22 10 22 6 0
10 5 10 10 0 21 -20 9 -26 -15z"/>
<path d="M9165 10819 c-52 -12 -153 -53 -238 -95 -64 -33 -176 -101 -187 -113
-3 -4 -18 -14 -33 -24 -15 -10 -74 -62 -130 -116 -63 -60 -121 -106 -152 -120
-52 -24 -185 -110 -185 -120 0 -3 8 -16 18 -28 17 -21 18 -21 52 -5 105 52
143 62 226 62 46 0 109 -7 141 -15 61 -16 391 -33 434 -22 14 4 46 35 76 74
66 87 124 163 145 188 50 60 187 234 206 262 l23 32 -22 12 c-57 30 -289 47
-374 28z"/>
<path d="M10838 10697 c-21 -6 -38 -14 -38 -19 0 -4 -18 -8 -41 -8 l-40 0 48
-62 c26 -35 49 -65 51 -67 5 -9 87 -1 115 11 21 8 34 8 54 -1 34 -15 53 1 53
44 0 24 7 38 26 52 42 31 24 49 -49 49 -34 0 -80 3 -102 6 -22 4 -57 2 -77 -5z"/>
<path d="M11655 10649 c-165 -19 -217 -30 -263 -54 -26 -14 -55 -25 -64 -25
-10 0 -57 -13 -105 -30 -65 -23 -102 -30 -152 -28 -36 0 -71 5 -77 10 -11 8
-131 -5 -141 -16 -10 -9 113 -165 130 -165 23 -1 99 75 116 117 7 17 19 32 26
32 18 0 28 -47 14 -71 -16 -30 -4 -52 25 -45 15 4 28 0 36 -9 7 -8 21 -15 32
-15 11 0 27 -7 36 -16 15 -15 14 -19 -16 -45 -18 -16 -40 -29 -50 -29 -10 0
-23 -5 -29 -11 -6 -6 -35 -17 -65 -24 l-53 -13 86 -1 c47 -1 112 4 145 10 57
11 63 15 182 133 l123 121 45 -50 c25 -27 59 -69 76 -92 35 -48 39 -49 100
-29 24 8 67 17 96 21 69 9 112 43 112 90 0 37 -15 32 183 56 53 6 97 14 97 18
0 3 -22 13 -48 23 -47 16 -209 81 -247 99 -91 42 -207 54 -350 38z m284 -115
c19 -4 31 -13 31 -22 0 -8 7 -24 17 -34 9 -10 14 -20 11 -23 -5 -6 -68 24 -78
36 -3 4 -20 10 -37 14 -36 7 -43 21 -15 28 27 7 37 7 71 1z"/>
<path d="M13615 10547 c-22 -19 -67 -47 -100 -62 -57 -27 -125 -88 -125 -111
0 -17 -40 -41 -91 -54 -114 -30 -140 -68 -147 -217 -4 -85 -3 -91 14 -88 11 2
36 4 56 4 46 1 94 48 103 101 8 44 39 80 90 104 22 10 61 29 88 42 54 28 57
28 57 12 -1 -22 -145 -172 -158 -164 -7 4 5 23 33 53 25 26 43 48 41 51 -3 2
-26 -7 -53 -20 -50 -26 -64 -44 -85 -117 -17 -58 -52 -83 -124 -89 l-56 -5 7
-46 c3 -25 9 -63 12 -83 6 -42 6 -42 33 -28 13 7 25 7 37 0 49 -27 209 -81
232 -77 l26 3 -32 13 c-18 7 -33 17 -33 21 0 4 -11 11 -25 14 -14 4 -25 11
-25 16 0 13 47 13 55 1 3 -6 31 -22 63 -37 31 -15 60 -29 65 -31 4 -3 10 4 14
14 10 29 35 53 55 53 16 0 18 9 18 95 0 90 -11 123 -24 73 -10 -42 -92 -63
-132 -34 -26 20 -11 31 25 18 46 -16 68 -4 101 53 29 51 30 57 30 176 l-1 124
-21 -50 c-12 -27 -26 -51 -30 -53 -4 -2 -8 -11 -8 -20 0 -25 -146 -172 -170
-172 -30 0 -24 16 15 40 121 75 219 274 213 433 l-3 78 -40 -34z"/>
<path d="M8370 10520 c-14 -11 -32 -20 -42 -20 -9 0 -18 -4 -20 -8 -1 -5 -66
-30 -143 -57 -167 -58 -253 -96 -289 -130 -30 -28 -56 -82 -56 -118 0 -24 -27
-57 -48 -57 -6 0 -20 -12 -30 -28 -17 -23 -18 -30 -7 -45 12 -16 18 -15 96 14
46 17 107 41 136 55 28 13 55 24 59 24 10 0 176 96 260 149 39 25 98 60 132
76 67 33 82 55 82 120 l0 45 -52 0 c-37 0 -61 -6 -78 -20z"/>
<path d="M12866 10405 c-3 -13 1 -42 10 -65 9 -22 14 -47 11 -55 -7 -16 12
-38 46 -56 16 -9 22 -9 25 0 10 31 35 43 79 36 52 -8 63 7 39 53 -21 41 -62
68 -137 92 -35 11 -65 20 -65 20 -1 0 -5 -11 -8 -25z"/>
<path d="M11093 10403 c-7 -2 -13 -11 -13 -18 0 -8 -18 -26 -40 -42 -42 -30
-46 -39 -27 -64 20 -26 55 -40 74 -30 10 5 40 15 67 23 27 7 51 19 54 26 2 7
-2 10 -11 6 -8 -3 -18 -1 -22 5 -3 6 -20 11 -36 11 -37 0 -57 35 -40 69 7 11
10 21 9 20 -2 0 -9 -3 -15 -6z"/>
<path d="M8420 10220 c-14 -4 -47 -19 -74 -34 -56 -30 -75 -31 -135 -10 -44
15 -45 15 -115 -20 -129 -62 -276 -123 -324 -132 -16 -3 -56 -27 -88 -54 -38
-30 -89 -58 -144 -79 -91 -34 -133 -68 -198 -156 -37 -50 -53 -67 -105 -106
-16 -12 -25 -25 -20 -28 4 -3 17 -22 27 -41 11 -19 22 -37 26 -40 19 -15 140
-212 135 -220 -3 -5 -21 -6 -40 -3 -51 8 -83 -3 -83 -29 -1 -13 -2 -34 -4 -47
-4 -28 14 -38 34 -18 35 35 109 54 242 62 163 10 209 39 374 235 53 63 105
123 116 133 26 23 20 26 -39 17 -78 -13 -195 -11 -253 4 -52 14 -122 53 -122
69 0 13 20 7 74 -22 70 -37 156 -46 281 -30 95 12 96 12 135 57 40 44 44 62
25 105 -11 25 0 43 42 71 21 13 60 45 86 70 27 25 54 46 61 46 7 0 32 14 54
30 23 17 46 30 51 30 5 0 14 7 21 15 9 11 25 13 64 9 42 -5 63 -1 115 20 66
28 131 32 139 8 3 -10 -4 -12 -30 -7 -26 5 -49 0 -94 -21 -40 -18 -77 -27
-116 -28 -94 -2 -93 -13 8 -116 49 -50 92 -97 97 -105 12 -22 49 -18 87 8 24
16 40 41 60 92 31 78 60 104 145 131 85 26 124 46 140 70 9 13 12 24 8 25 -14
1 -83 7 -223 18 -74 6 -168 16 -208 21 -85 12 -196 12 -232 0z"/>
<path d="M11266 10193 c-4 -4 -43 -8 -86 -8 -44 -1 -80 -5 -81 -9 -1 -12 70
-106 80 -106 10 0 113 105 119 121 4 11 -21 12 -32 2z"/>
<path d="M6810 10105 c-25 -13 -51 -24 -57 -24 -30 -2 8 -71 38 -71 6 0 24
-14 39 -30 25 -27 32 -29 67 -22 35 7 38 10 35 38 -3 25 4 36 38 63 l42 33
-29 19 c-39 26 -115 23 -173 -6z"/>
<path d="M8926 10055 c-79 -33 -91 -46 -116 -121 -21 -62 -49 -96 -91 -109
-10 -4 -19 -12 -19 -19 0 -17 33 -46 51 -45 14 0 241 281 247 306 5 18 -3 16
-72 -12z"/>
<path d="M8281 9939 c-18 -22 -48 -48 -67 -56 -27 -13 -34 -23 -34 -45 0 -18
4 -26 13 -22 13 6 137 148 137 158 0 16 -20 2 -49 -35z"/>
<path d="M12715 9779 c-33 -12 -69 -23 -79 -25 -34 -6 -41 -22 -21 -44 23 -25
15 -34 -17 -19 -21 9 -30 8 -52 -6 -31 -20 -32 -27 -8 -47 16 -14 89 -50 94
-47 2 1 19 -8 38 -20 19 -11 45 -25 57 -31 26 -11 41 -56 26 -79 -6 -9 -26
-17 -47 -19 -20 -2 -36 -7 -36 -11 0 -16 38 -41 53 -36 22 9 92 -12 124 -38
15 -12 42 -30 59 -39 l31 -17 53 54 c30 30 50 55 45 56 -6 0 -58 0 -117 -1
-60 -1 -108 3 -108 7 0 5 79 87 175 183 96 96 175 179 175 183 0 5 -8 6 -17 2
-41 -16 -72 -20 -149 -18 -76 1 -81 0 -77 -18 6 -22 -15 -26 -23 -4 -8 21 -67
55 -95 55 -13 -1 -51 -10 -84 -21z"/>
<path d="M13617 9773 c-15 -14 -6 -40 18 -51 24 -11 25 -10 25 23 0 27 -4 35
-18 35 -10 0 -22 -3 -25 -7z"/>
<path d="M13311 9765 c34 -37 342 -345 345 -345 2 0 4 60 4 133 l-1 132 -40
19 c-22 10 -57 18 -77 18 -56 0 -148 17 -179 33 -26 14 -62 21 -52 10z"/>
<path d="M7160 9696 c0 -8 8 -24 19 -37 l19 -23 36 24 c52 36 47 50 -19 50
-40 0 -55 -4 -55 -14z"/>
<path d="M9602 9486 l-482 -122 -38 -41 c-20 -23 -62 -68 -92 -100 -55 -59
-127 -137 -215 -233 -27 -30 -100 -109 -161 -175 -60 -66 -120 -131 -133 -145
-13 -14 -27 -35 -32 -48 -5 -13 -9 -181 -9 -373 l0 -349 -965 0 -965 0 0 -90
0 -90 3575 0 3575 0 0 90 0 90 -959 0 -958 0 -16 88 c-9 48 -26 139 -37 202
-11 63 -24 138 -29 165 -6 28 -22 120 -36 205 -14 85 -28 164 -30 175 -2 11
-27 38 -56 60 -28 22 -88 69 -133 105 -45 36 -109 86 -142 112 -32 25 -107 84
-165 130 -58 45 -121 94 -139 108 -18 14 -49 37 -67 52 -19 15 -60 37 -91 48
-32 11 -66 25 -77 29 -11 5 -54 21 -95 36 -41 15 -109 40 -150 55 -201 77
-374 140 -384 139 -6 -1 -228 -56 -494 -123z m812 -35 c160 -60 300 -110 310
-112 41 -8 26 -27 -26 -34 -29 -3 -75 -10 -103 -15 -27 -5 -111 -18 -185 -30
-74 -11 -202 -32 -285 -45 -243 -38 -249 -39 -242 -22 3 8 44 75 90 149 46 73
96 152 111 176 14 23 29 42 33 42 3 0 137 -49 297 -109z m-364 94 c0 -3 -43
-74 -96 -158 -53 -84 -106 -167 -117 -185 -12 -20 -25 -31 -33 -28 -8 3 -65
19 -127 37 -61 17 -139 39 -172 49 -33 9 -107 30 -165 46 -113 30 -116 31
-108 40 7 6 775 201 801 203 9 1 17 -1 17 -4z m-715 -280 c88 -25 180 -51 205
-59 25 -7 84 -24 133 -37 51 -14 87 -29 87 -36 0 -7 -4 -13 -9 -13 -5 0 -79
-43 -164 -95 -86 -52 -176 -105 -199 -118 -24 -13 -96 -57 -161 -97 -65 -40
-121 -69 -124 -66 -4 3 -1 64 5 134 6 70 17 196 23 280 11 128 15 152 28 152
9 0 88 -20 176 -45z m1455 1 c0 -7 -7 -19 -15 -26 -9 -7 -48 -54 -88 -104 -39
-50 -76 -96 -82 -102 -5 -6 -59 -72 -119 -147 -60 -75 -116 -137 -125 -137 -8
0 -26 11 -40 23 -23 21 -134 111 -360 293 -39 31 -68 61 -64 65 5 5 98 22 208
39 110 18 241 38 290 46 50 8 151 23 225 35 74 11 136 22 139 25 10 9 31 3 31
-10z m-1694 -48 c-3 -29 -11 -109 -16 -178 -22 -267 -27 -320 -31 -324 -2 -2
-83 -14 -179 -25 -96 -11 -210 -26 -253 -32 -44 -5 -82 -8 -85 -4 -3 3 16 29
44 57 27 28 54 57 59 63 21 25 91 102 144 160 146 157 258 280 280 306 35 43
45 37 37 -23z m1817 -118 c31 -80 94 -241 141 -359 47 -118 83 -217 81 -221
-3 -4 -42 3 -87 17 -46 13 -114 33 -153 44 -38 11 -99 28 -135 39 -36 11 -108
31 -160 45 -108 29 -171 47 -183 52 -9 5 -1 19 40 69 18 21 54 67 82 102 27
35 65 82 85 105 19 23 69 85 111 137 108 136 106 133 115 124 4 -5 33 -74 63
-154z m121 42 c61 -49 188 -148 281 -221 212 -166 217 -170 211 -179 -3 -5
-70 -52 -150 -106 -81 -54 -149 -102 -152 -107 -13 -22 -40 -7 -56 34 -63 156
-251 635 -255 650 -3 9 -2 17 2 17 4 0 57 -40 119 -88z m-1095 -109 c53 -43
98 -80 101 -83 3 -3 25 -21 50 -40 25 -19 56 -45 69 -57 13 -12 50 -41 82 -65
32 -24 58 -48 59 -54 0 -7 -47 -15 -122 -23 -68 -6 -166 -16 -218 -21 -229
-23 -304 -30 -306 -27 -3 3 70 184 105 262 10 22 31 73 46 113 16 39 30 72 33
72 3 0 48 -35 101 -77z m-165 25 c-6 -7 -30 -60 -54 -118 -80 -193 -111 -265
-119 -273 -4 -4 -55 -3 -112 3 -57 5 -153 15 -214 21 -60 6 -113 14 -118 18
-4 4 106 75 245 159 139 83 278 167 308 186 33 21 59 31 64 26 6 -6 5 -14 0
-22z m1795 -425 c7 -38 17 -90 22 -118 5 -27 21 -117 35 -200 14 -82 29 -170
34 -195 21 -107 33 -191 27 -197 -4 -3 -17 7 -29 23 -13 16 -117 139 -232 273
-155 181 -207 247 -200 258 11 17 305 222 320 223 6 0 16 -30 23 -67z m-1244
41 c0 -20 -381 -773 -391 -773 -6 -1 -19 20 -29 47 -42 113 -148 381 -166 419
-10 24 -19 46 -19 51 0 4 -16 46 -35 92 -19 46 -35 89 -35 96 0 12 24 15 275
39 327 31 369 36 374 41 7 7 26 -1 26 -12z m-1347 -80 c-25 -33 -89 -123 -144
-202 -54 -79 -130 -187 -167 -240 -38 -53 -91 -130 -118 -170 -28 -40 -53 -71
-57 -68 -4 2 -5 159 -2 348 l5 343 105 12 c58 7 170 19 249 28 80 8 147 17
150 20 2 3 9 1 14 -4 5 -5 -9 -33 -35 -67z m387 46 c105 -11 193 -20 198 -20
19 0 12 -12 -359 -583 -35 -53 -64 -102 -64 -107 0 -6 -7 -10 -15 -10 -12 0
-15 15 -16 73 0 39 -4 205 -8 367 -5 162 -6 299 -4 303 3 5 21 6 42 3 20 -4
122 -15 226 -26z m1193 -5 c70 -20 138 -39 152 -44 14 -5 43 -14 65 -20 22 -6
112 -32 200 -57 87 -24 161 -47 163 -49 5 -5 -24 -66 -71 -150 -19 -33 -78
-140 -132 -237 -99 -183 -122 -208 -142 -155 -9 23 -160 321 -293 576 -77 149
-87 171 -74 171 3 0 63 -16 132 -35z m-117 -107 c69 -137 221 -434 280 -546
22 -40 39 -75 39 -77 0 -7 -756 -6 -763 1 -8 8 361 744 373 744 5 0 37 -55 71
-122z m-1385 -55 c2 -70 6 -228 9 -350 l5 -223 -260 0 c-143 0 -260 4 -260 9
0 5 41 66 91 137 50 71 115 162 143 202 28 41 67 96 86 122 19 27 60 86 90
131 61 90 80 112 87 105 3 -3 7 -63 9 -133z m599 7 c36 -100 188 -488 222
-567 4 -10 -70 -13 -351 -13 -196 0 -356 3 -356 7 0 6 37 64 257 401 51 79
112 172 135 208 48 77 52 76 93 -36z m1646 -176 c57 -66 124 -144 149 -174 91
-109 175 -205 183 -208 38 -17 -40 -22 -374 -22 -319 0 -380 2 -370 13 6 8 26
41 43 74 169 311 245 443 254 440 7 -1 58 -56 115 -123z"/>
<path d="M13465 9350 c10 -11 23 -20 30 -20 6 0 22 -11 35 -25 13 -14 31 -25
41 -25 10 0 21 -5 24 -10 3 -6 19 -17 36 -25 l29 -16 0 71 0 70 -107 0 c-105
0 -106 0 -88 -20z"/>
<path d="M13500 9284 c0 -3 36 -42 80 -86 l80 -80 0 45 c0 42 -2 46 -30 52
-16 4 -30 11 -30 16 0 5 -11 11 -24 15 -14 3 -32 14 -42 25 -17 18 -34 25 -34
13z"/>
<path d="M7200 9272 c0 -11 41 -44 48 -38 3 3 -3 15 -13 26 -18 20 -35 26 -35
12z"/>
<path d="M7673 9250 c-12 -5 -73 -12 -135 -16 -78 -4 -128 -13 -160 -26 -82
-35 -82 -38 16 -134 47 -47 90 -84 95 -82 7 3 74 78 185 211 46 55 46 66 -1
47z"/>
<path d="M13580 8885 c19 -19 41 -35 49 -35 10 0 3 12 -19 35 -19 19 -41 35
-49 35 -10 0 -3 -12 19 -35z"/>
<path d="M13625 8900 c10 -11 22 -20 27 -20 15 0 9 28 -8 34 -30 11 -37 6 -19
-14z"/>
<path d="M6510 8733 l0 -87 84 80 c46 43 84 82 85 87 0 4 -37 7 -84 7 l-85 0
0 -87z"/>
<path d="M6671 7505 c-71 -20 -113 -53 -142 -112 -24 -48 -24 -49 -27 -497 -2
-381 0 -456 13 -501 30 -105 100 -155 226 -163 139 -8 235 40 275 138 16 39
19 83 22 323 l4 277 -131 0 -131 0 0 -100 0 -100 25 0 25 0 0 -153 c0 -136 -2
-156 -18 -170 -26 -24 -79 -22 -92 2 -6 13 -10 166 -10 430 0 450 -1 441 60
441 48 0 60 -29 60 -147 l0 -103 106 0 107 0 -5 138 c-5 144 -19 193 -68 242
-58 58 -196 83 -299 55z"/>
<path d="M13240 7510 c-70 -15 -130 -58 -159 -115 -23 -44 -26 -64 -29 -177
-3 -98 0 -138 12 -176 25 -73 68 -135 128 -182 117 -92 132 -107 160 -149 26
-42 28 -52 28 -145 -1 -116 -10 -136 -62 -136 -53 0 -58 12 -58 132 l0 108
-105 0 -105 0 0 -113 c0 -175 31 -250 124 -300 35 -19 57 -22 146 -22 88 0
112 4 145 22 88 47 116 110 123 283 8 206 -27 293 -160 395 -86 66 -137 115
-154 147 -9 17 -14 59 -14 116 0 73 3 92 18 105 25 23 58 21 82 -3 17 -17 20
-33 20 -125 l0 -105 106 0 107 0 -5 133 c-7 185 -34 243 -133 288 -50 22 -154
31 -215 19z"/>
<path d="M7197 7493 c-4 -3 -7 -285 -7 -625 l0 -618 245 0 245 0 0 100 0 101
-137 -2 -138 -1 -3 526 -2 526 -98 0 c-54 0 -102 -3 -105 -7z"/>
<path d="M7886 7328 c-15 -95 -42 -267 -61 -383 -19 -115 -39 -248 -45 -295
-6 -47 -20 -147 -31 -223 -28 -198 -37 -178 84 -175 l102 3 17 120 c9 66 17
124 17 128 1 4 36 7 78 5 l78 -3 17 -125 c9 -69 17 -126 17 -127 1 -2 46 -3
101 -3 90 0 100 2 100 18 0 56 -70 556 -120 852 -11 63 -26 162 -35 220 -9 58
-18 117 -21 133 l-6 27 -132 0 -132 0 -28 -172z m188 -442 l23 -176 -49 0
c-43 0 -48 2 -48 23 0 35 42 338 47 333 2 -2 14 -83 27 -180z"/>
<path d="M8477 7494 c-4 -4 -7 -286 -7 -626 l0 -618 100 0 100 0 1 278 c0 171
4 269 9 257 5 -11 30 -114 55 -230 25 -115 50 -231 56 -257 l11 -48 72 0 73 0
17 83 c111 532 104 518 105 195 l1 -278 100 0 100 0 0 625 0 626 -102 -3 -102
-3 -52 -220 c-28 -121 -64 -274 -79 -340 -46 -202 -62 -261 -68 -245 -3 8 -19
76 -37 150 -62 268 -122 526 -139 590 l-16 65 -96 3 c-52 1 -98 0 -102 -4z"/>
<path d="M9437 7494 c-4 -4 -7 -286 -7 -626 l0 -618 105 0 105 0 0 259 0 260
48 6 c133 17 195 53 237 138 26 55 27 56 23 245 l-3 189 -30 48 c-21 35 -45
56 -80 74 -46 24 -60 26 -220 29 -93 2 -173 0 -178 -4z m297 -216 c12 -17 16
-50 16 -141 0 -112 -1 -119 -25 -142 -15 -16 -36 -25 -55 -25 l-30 0 0 165 0
165 39 0 c30 0 44 -6 55 -22z"/>
<path d="M10400 6875 l0 -625 105 0 105 0 0 259 0 259 23 6 c12 3 40 6 63 6
52 0 136 42 173 87 46 56 53 100 49 299 -3 163 -5 183 -26 221 -26 50 -79 88
-142 102 -25 6 -114 11 -197 11 l-153 0 0 -625z m301 404 c19 -19 20 -30 17
-149 -3 -144 -10 -159 -75 -160 l-33 0 0 165 0 165 35 0 c22 0 43 -8 56 -21z"/>
<path d="M11060 6875 l0 -625 245 0 246 0 -3 98 -3 97 -137 0 -138 0 0 163 0
162 120 0 120 0 0 100 0 100 -120 0 -120 0 0 165 0 165 140 0 140 0 0 100 0
100 -245 0 -245 0 0 -625z"/>
<path d="M11810 7491 c0 -5 -18 -123 -41 -262 -22 -140 -47 -297 -55 -349 -25
-160 -84 -590 -84 -611 0 -18 8 -19 105 -19 l105 0 0 28 c0 26 17 162 26 210
4 22 8 23 82 20 l77 -3 17 -125 c9 -69 17 -126 17 -127 1 -2 46 -3 101 -3 87
0 100 2 100 17 0 41 -55 441 -91 668 -22 138 -45 279 -50 315 -5 36 -14 92
-19 125 -6 33 -13 75 -16 93 l-5 32 -134 0 c-74 0 -135 -4 -135 -9z m168 -638
l19 -143 -49 0 c-58 0 -56 -15 -26 204 25 183 24 184 56 -61z"/>
<path d="M12370 6876 l0 -625 105 -3 105 -3 1 245 1 245 79 -242 80 -243 110
0 c85 0 110 3 106 13 -2 6 -42 109 -87 227 -45 118 -96 250 -113 294 -17 43
-30 83 -30 90 0 6 28 85 63 176 35 91 78 203 95 250 18 47 42 109 54 138 11
29 21 55 21 57 0 3 -49 5 -110 5 l-109 0 -71 -222 c-39 -123 -75 -232 -80
-243 -5 -12 -9 72 -9 223 l-1 242 -105 0 -105 0 0 -624z"/>
</g>
</svg>
